<svg xmlns="http://www.w3.org/2000/svg" viewBox="0 0 425.2 93.01"><defs><style>.cls-1{fill:#14a0ff;}.cls-2{fill:#fff;}</style></defs><g id="Слой_2" data-name="Слой 2"><g id="Layer_1" data-name="Layer 1"><path class="cls-1" d="M246,27.89C249.79,12.63,240.54,0,217.82,0L168.63.07,150.21,74.65,160.9,93h35c22.94,0,40.68-10.7,45.27-29.28,2.3-9.53-.35-16.21-6.35-19.54V44A25.87,25.87,0,0,0,246,27.89ZM215.87,63.12C215,67,212.31,71,201.41,71H179.07L183,55H205.2C216.1,55,216.9,59.1,215.87,63.12Zm4.59-34.73c-.8,3-3.1,6.61-12.51,6.61h-20l3.33-13h20C220.8,22,221.26,25.06,220.46,28.39Z"/><polygon class="cls-1" points="276.98 57 321.76 57 326.88 35 282.37 35 285.81 22 329.9 22 335.02 0 262.67 0 239.72 93 321.65 93 327.05 71 273.65 71 276.98 57"/><polygon class="cls-1" points="341.26 0 336.14 22 362.9 22 345.33 93 373.45 93 391.04 22 419.69 22 425.2 0 341.26 0"/><path class="cls-2" d="M29.39,93H1.06L13.33,43.49,16.17,36,8.66,43.3.33,51.75,0,27,29.4,0H52.31Z"/><path class="cls-2" d="M131.71,54.46l-9.05-15.29L166.49,0H125.67L108.91,16l-.06-.09L52.47,67.82,25.35,93H64l29-25.9,9.76,16.59c3.18,4.18,8,9.3,28,9.3h23.45L131.74,54.44Z"/><path class="cls-2" d="M105.85,10.86l-.12-.21C99.13,1.08,89,0,83.74,0c-1.58,0-2.58,0-2.58,0H53.56L76.07,38.28Z"/></g></g></svg>